
   <svg
      width="19"
      height="21"
      viewBox="0 0 29 31"
      fill="none"
      xmlns="http://www.w3.org/2000/svg"
    >
      <path
        d="M22.7539 9.70154C22.7539 7.39375 21.8371 5.18048 20.2052 3.54862C18.5734 1.91677 16.3601 1 14.0523 1C11.7445 1 9.53125 1.91677 7.89939 3.54862C6.26754 5.18048 5.35077 7.39375 5.35077 9.70154C5.35077 19.8533 1 22.7539 1 22.7539H27.1046C27.1046 22.7539 22.7539 19.8533 22.7539 9.70154Z"
        stroke="#213F7D"
        strokeOpacity="0.6"
        strokeWidth="2"
        strokeLinecap="round"
        strokeLinejoin="round"
      />
      <path
        d="M16.5613 28.5549C16.3064 28.9944 15.9404 29.3593 15.5001 29.6129C15.0598 29.8665 14.5605 30 14.0524 30C13.5443 30 13.045 29.8665 12.6047 29.6129C12.1644 29.3593 11.7984 28.9944 11.5435 28.5549"
        stroke="#213F7D"
        strokeOpacity="0.6"
        strokeWidth="2"
        strokeLinecap="round"
        strokeLinejoin="round"
      />
    </svg>

